<?xml version="1.0" encoding="utf-8"?>
<!-- Generator: Adobe Illustrator 22.0.0, SVG Export Plug-In . SVG Version: 6.00 Build 0)  -->
<svg version="1.1" xmlns="http://www.w3.org/2000/svg" xmlns:xlink="http://www.w3.org/1999/xlink" x="0px" y="0px"
	 viewBox="0 0 1048.8 607.7" style="enable-background:new 0 0 1048.8 607.7;" xml:space="preserve">
<style type="text/css">
	.st0{fill:none;stroke:#E58777;stroke-width:0.25;stroke-miterlimit:10;}
</style>
<g id="header">
</g>
<g id="design_layout">
	<g>
		<g>
			<line class="st0" x1="-0.4" y1="33.8" x2="171.3" y2="33.8"/>
			<line class="st0" x1="-0.4" y1="42.4" x2="171.3" y2="42.4"/>
			<line class="st0" x1="-0.4" y1="51" x2="171.3" y2="51"/>
			<line class="st0" x1="-0.4" y1="59.5" x2="171.3" y2="59.5"/>
			<line class="st0" x1="-0.4" y1="-0.5" x2="171.3" y2="-0.5"/>
			<line class="st0" x1="-0.4" y1="8.1" x2="171.3" y2="8.1"/>
			<line class="st0" x1="-0.4" y1="16.7" x2="171.3" y2="16.7"/>
			<line class="st0" x1="-0.4" y1="25.3" x2="171.3" y2="25.3"/>
			<line class="st0" x1="-0.4" y1="68.1" x2="171.3" y2="68.1"/>
			<line class="st0" x1="-0.4" y1="76.7" x2="171.3" y2="76.7"/>
			<line class="st0" x1="-0.4" y1="85.2" x2="171.3" y2="85.2"/>
			<line class="st0" x1="-0.4" y1="102.4" x2="171.3" y2="102.4"/>
			<line class="st0" x1="-0.4" y1="93.8" x2="171.3" y2="93.8"/>
			<line class="st0" x1="-0.4" y1="111" x2="171.3" y2="111"/>
			<line class="st0" x1="-0.4" y1="119.5" x2="171.3" y2="119.5"/>
			<line class="st0" x1="-0.4" y1="128.1" x2="171.3" y2="128.1"/>
			<line class="st0" x1="-0.4" y1="136.7" x2="171.3" y2="136.7"/>
			<line class="st0" x1="-0.4" y1="145.2" x2="171.3" y2="145.2"/>
			<line class="st0" x1="-0.4" y1="153.8" x2="171.3" y2="153.8"/>
			<line class="st0" x1="-0.4" y1="170.9" x2="171.3" y2="170.9"/>
			<line class="st0" x1="-0.4" y1="162.4" x2="171.3" y2="162.4"/>
			<line class="st0" x1="-0.4" y1="179.5" x2="171.3" y2="179.5"/>
			<line class="st0" x1="-0.4" y1="188.1" x2="171.3" y2="188.1"/>
			<line class="st0" x1="-0.4" y1="196.6" x2="171.3" y2="196.6"/>
			<line class="st0" x1="-0.4" y1="205.2" x2="171.3" y2="205.2"/>
			<line class="st0" x1="-0.4" y1="213.8" x2="171.3" y2="213.8"/>
			<line class="st0" x1="-0.4" y1="222.4" x2="171.3" y2="222.4"/>
			<line class="st0" x1="-0.4" y1="239.5" x2="171.3" y2="239.5"/>
			<line class="st0" x1="-0.4" y1="230.9" x2="171.3" y2="230.9"/>
			<line class="st0" x1="-0.4" y1="248.1" x2="171.3" y2="248.1"/>
			<line class="st0" x1="-0.4" y1="256.6" x2="171.3" y2="256.6"/>
			<line class="st0" x1="-0.4" y1="265.2" x2="171.3" y2="265.2"/>
			<line class="st0" x1="-0.4" y1="273.8" x2="171.3" y2="273.8"/>
			<line class="st0" x1="-0.4" y1="282.3" x2="171.3" y2="282.3"/>
			<line class="st0" x1="-0.4" y1="290.9" x2="171.3" y2="290.9"/>
			<line class="st0" x1="-0.4" y1="299.5" x2="171.3" y2="299.5"/>
			<line class="st0" x1="-0.4" y1="342.3" x2="171.3" y2="342.3"/>
			<line class="st0" x1="-0.4" y1="350.9" x2="171.3" y2="350.9"/>
			<line class="st0" x1="-0.4" y1="359.5" x2="171.3" y2="359.5"/>
			<line class="st0" x1="-0.4" y1="368" x2="171.3" y2="368"/>
			<line class="st0" x1="-0.4" y1="308" x2="171.3" y2="308"/>
			<line class="st0" x1="-0.4" y1="316.6" x2="171.3" y2="316.6"/>
			<line class="st0" x1="-0.4" y1="325.2" x2="171.3" y2="325.2"/>
			<line class="st0" x1="-0.4" y1="333.8" x2="171.3" y2="333.8"/>
			<line class="st0" x1="-0.4" y1="376.6" x2="171.3" y2="376.6"/>
			<line class="st0" x1="-0.4" y1="385.2" x2="171.3" y2="385.2"/>
			<line class="st0" x1="-0.4" y1="393.7" x2="171.3" y2="393.7"/>
			<line class="st0" x1="-0.4" y1="410.9" x2="171.3" y2="410.9"/>
			<line class="st0" x1="-0.4" y1="402.3" x2="171.3" y2="402.3"/>
			<line class="st0" x1="-0.4" y1="419.5" x2="171.3" y2="419.5"/>
			<line class="st0" x1="-0.4" y1="428" x2="171.3" y2="428"/>
			<line class="st0" x1="-0.4" y1="436.6" x2="171.3" y2="436.6"/>
			<line class="st0" x1="-0.4" y1="445.2" x2="171.3" y2="445.2"/>
			<line class="st0" x1="-0.4" y1="453.7" x2="171.3" y2="453.7"/>
			<line class="st0" x1="-0.4" y1="462.3" x2="171.3" y2="462.3"/>
			<line class="st0" x1="-0.4" y1="479.4" x2="171.3" y2="479.4"/>
			<line class="st0" x1="-0.4" y1="470.9" x2="171.3" y2="470.9"/>
			<line class="st0" x1="-0.4" y1="488" x2="171.3" y2="488"/>
			<line class="st0" x1="-0.4" y1="496.6" x2="171.3" y2="496.6"/>
			<line class="st0" x1="-0.4" y1="505.1" x2="171.3" y2="505.1"/>
			<line class="st0" x1="-0.4" y1="513.7" x2="171.3" y2="513.7"/>
			<line class="st0" x1="-0.4" y1="522.3" x2="171.3" y2="522.3"/>
			<line class="st0" x1="-0.4" y1="530.9" x2="171.3" y2="530.9"/>
			<line class="st0" x1="-0.4" y1="548" x2="171.3" y2="548"/>
			<line class="st0" x1="-0.4" y1="539.4" x2="171.3" y2="539.4"/>
			<line class="st0" x1="-0.4" y1="556.6" x2="171.3" y2="556.6"/>
			<line class="st0" x1="-0.4" y1="565.1" x2="171.3" y2="565.1"/>
			<line class="st0" x1="-0.4" y1="573.7" x2="171.3" y2="573.7"/>
			<line class="st0" x1="-0.4" y1="582.3" x2="171.3" y2="582.3"/>
			<line class="st0" x1="-0.4" y1="590.8" x2="171.3" y2="590.8"/>
			<line class="st0" x1="-0.4" y1="599.4" x2="171.3" y2="599.4"/>
			<line class="st0" x1="-0.4" y1="608" x2="171.3" y2="608"/>
		</g>
		<g>
			<line class="st0" x1="136.9" y1="-0.6" x2="136.9" y2="608"/>
			<line class="st0" x1="128.3" y1="-0.6" x2="128.3" y2="608"/>
			<line class="st0" x1="119.7" y1="-0.6" x2="119.7" y2="608"/>
			<line class="st0" x1="111.2" y1="-0.6" x2="111.2" y2="608"/>
			<line class="st0" x1="171.1" y1="-0.6" x2="171.1" y2="608"/>
			<line class="st0" x1="162.6" y1="-0.6" x2="162.6" y2="608"/>
			<line class="st0" x1="154" y1="-0.6" x2="154" y2="608"/>
			<line class="st0" x1="145.4" y1="-0.6" x2="145.4" y2="608"/>
			<line class="st0" x1="102.6" y1="-0.6" x2="102.6" y2="608"/>
			<line class="st0" x1="94" y1="-0.6" x2="94" y2="608"/>
			<line class="st0" x1="85.5" y1="-0.6" x2="85.5" y2="608"/>
			<line class="st0" x1="68.3" y1="-0.6" x2="68.3" y2="608"/>
			<line class="st0" x1="76.9" y1="-0.6" x2="76.9" y2="608"/>
			<line class="st0" x1="59.7" y1="-0.6" x2="59.7" y2="608"/>
			<line class="st0" x1="51.2" y1="-0.6" x2="51.2" y2="608"/>
			<line class="st0" x1="42.6" y1="-0.6" x2="42.6" y2="608"/>
			<line class="st0" x1="34" y1="-0.6" x2="34" y2="608"/>
			<line class="st0" x1="25.5" y1="-0.6" x2="25.5" y2="608"/>
			<line class="st0" x1="16.9" y1="-0.6" x2="16.9" y2="608"/>
			<line class="st0" x1="-0.2" y1="-0.6" x2="-0.2" y2="608"/>
			<line class="st0" x1="8.3" y1="-0.6" x2="8.3" y2="608"/>
		</g>
	</g>
	<g>
		<g>
			<line class="st0" x1="876.6" y1="33.8" x2="1048.3" y2="33.8"/>
			<line class="st0" x1="876.6" y1="42.4" x2="1048.3" y2="42.4"/>
			<line class="st0" x1="876.6" y1="51" x2="1048.3" y2="51"/>
			<line class="st0" x1="876.6" y1="59.5" x2="1048.3" y2="59.5"/>
			<line class="st0" x1="876.6" y1="8.1" x2="1048.3" y2="8.1"/>
			<line class="st0" x1="876.6" y1="16.7" x2="1048.3" y2="16.7"/>
			<line class="st0" x1="876.6" y1="25.3" x2="1048.3" y2="25.3"/>
			<line class="st0" x1="876.6" y1="68.1" x2="1048.3" y2="68.1"/>
			<line class="st0" x1="876.6" y1="76.7" x2="1048.3" y2="76.7"/>
			<line class="st0" x1="876.6" y1="85.2" x2="1048.3" y2="85.2"/>
			<line class="st0" x1="876.6" y1="102.4" x2="1048.3" y2="102.4"/>
			<line class="st0" x1="876.6" y1="93.8" x2="1048.3" y2="93.8"/>
			<line class="st0" x1="876.6" y1="111" x2="1048.3" y2="111"/>
			<line class="st0" x1="876.6" y1="119.5" x2="1048.3" y2="119.5"/>
			<line class="st0" x1="876.6" y1="128.1" x2="1048.3" y2="128.1"/>
			<line class="st0" x1="876.6" y1="136.7" x2="1048.3" y2="136.7"/>
			<line class="st0" x1="876.6" y1="145.2" x2="1048.3" y2="145.2"/>
			<line class="st0" x1="876.6" y1="153.8" x2="1048.3" y2="153.8"/>
			<line class="st0" x1="876.6" y1="170.9" x2="1048.3" y2="170.9"/>
			<line class="st0" x1="876.6" y1="162.4" x2="1048.3" y2="162.4"/>
			<line class="st0" x1="876.6" y1="179.5" x2="1048.3" y2="179.5"/>
			<line class="st0" x1="876.6" y1="188.1" x2="1048.3" y2="188.1"/>
			<line class="st0" x1="876.6" y1="196.6" x2="1048.3" y2="196.6"/>
			<line class="st0" x1="876.6" y1="205.2" x2="1048.3" y2="205.2"/>
			<line class="st0" x1="876.6" y1="213.8" x2="1048.3" y2="213.8"/>
			<line class="st0" x1="876.6" y1="222.4" x2="1048.3" y2="222.4"/>
			<line class="st0" x1="876.6" y1="239.5" x2="1048.3" y2="239.5"/>
			<line class="st0" x1="876.6" y1="230.9" x2="1048.3" y2="230.9"/>
			<line class="st0" x1="876.6" y1="248.1" x2="1048.3" y2="248.1"/>
			<line class="st0" x1="876.6" y1="256.6" x2="1048.3" y2="256.6"/>
			<line class="st0" x1="876.6" y1="265.2" x2="1048.3" y2="265.2"/>
			<line class="st0" x1="876.6" y1="273.8" x2="1048.3" y2="273.8"/>
			<line class="st0" x1="876.6" y1="282.3" x2="1048.3" y2="282.3"/>
			<line class="st0" x1="876.6" y1="290.9" x2="1048.3" y2="290.9"/>
			<line class="st0" x1="876.6" y1="299.5" x2="1048.3" y2="299.5"/>
			<line class="st0" x1="876.6" y1="342.3" x2="1048.3" y2="342.3"/>
			<line class="st0" x1="876.6" y1="350.9" x2="1048.3" y2="350.9"/>
			<line class="st0" x1="876.6" y1="359.5" x2="1048.3" y2="359.5"/>
			<line class="st0" x1="876.6" y1="368" x2="1048.3" y2="368"/>
			<line class="st0" x1="876.6" y1="308" x2="1048.3" y2="308"/>
			<line class="st0" x1="876.6" y1="316.6" x2="1048.3" y2="316.6"/>
			<line class="st0" x1="876.6" y1="325.2" x2="1048.3" y2="325.2"/>
			<line class="st0" x1="876.6" y1="333.8" x2="1048.3" y2="333.8"/>
			<line class="st0" x1="876.6" y1="376.6" x2="1048.3" y2="376.6"/>
			<line class="st0" x1="876.6" y1="385.2" x2="1048.3" y2="385.2"/>
			<line class="st0" x1="876.6" y1="393.7" x2="1048.3" y2="393.7"/>
			<line class="st0" x1="876.6" y1="410.9" x2="1048.3" y2="410.9"/>
			<line class="st0" x1="876.6" y1="402.3" x2="1048.3" y2="402.3"/>
			<line class="st0" x1="876.6" y1="419.5" x2="1048.3" y2="419.5"/>
			<line class="st0" x1="876.6" y1="428" x2="1048.3" y2="428"/>
			<line class="st0" x1="876.6" y1="436.6" x2="1048.3" y2="436.6"/>
			<line class="st0" x1="876.6" y1="445.2" x2="1048.3" y2="445.2"/>
			<line class="st0" x1="876.6" y1="453.7" x2="1048.3" y2="453.7"/>
			<line class="st0" x1="876.6" y1="462.3" x2="1048.3" y2="462.3"/>
			<line class="st0" x1="876.6" y1="479.4" x2="1048.3" y2="479.4"/>
			<line class="st0" x1="876.6" y1="470.9" x2="1048.3" y2="470.9"/>
			<line class="st0" x1="876.6" y1="488" x2="1048.3" y2="488"/>
			<line class="st0" x1="876.6" y1="496.6" x2="1048.3" y2="496.6"/>
			<line class="st0" x1="876.6" y1="505.1" x2="1048.3" y2="505.1"/>
			<line class="st0" x1="876.6" y1="513.7" x2="1048.3" y2="513.7"/>
			<line class="st0" x1="876.6" y1="522.3" x2="1048.3" y2="522.3"/>
			<line class="st0" x1="876.6" y1="530.9" x2="1048.3" y2="530.9"/>
			<line class="st0" x1="876.6" y1="548" x2="1048.3" y2="548"/>
			<line class="st0" x1="876.6" y1="539.4" x2="1048.3" y2="539.4"/>
			<line class="st0" x1="876.6" y1="556.6" x2="1048.3" y2="556.6"/>
			<line class="st0" x1="876.6" y1="565.1" x2="1048.3" y2="565.1"/>
			<line class="st0" x1="876.6" y1="573.7" x2="1048.3" y2="573.7"/>
			<line class="st0" x1="876.6" y1="582.3" x2="1048.3" y2="582.3"/>
			<line class="st0" x1="876.6" y1="590.8" x2="1048.3" y2="590.8"/>
			<line class="st0" x1="876.6" y1="599.4" x2="1048.3" y2="599.4"/>
			<line class="st0" x1="876.6" y1="608" x2="1048.3" y2="608"/>
		</g>
		<g>
			<line class="st0" x1="1013.9" y1="-0.6" x2="1013.9" y2="608"/>
			<line class="st0" x1="1005.3" y1="-0.6" x2="1005.3" y2="608"/>
			<line class="st0" x1="996.7" y1="-0.6" x2="996.7" y2="608"/>
			<line class="st0" x1="988.2" y1="-0.6" x2="988.2" y2="608"/>
			<line class="st0" x1="1048.1" y1="-0.6" x2="1048.1" y2="608"/>
			<line class="st0" x1="1039.6" y1="-0.6" x2="1039.6" y2="608"/>
			<line class="st0" x1="1031" y1="-0.6" x2="1031" y2="608"/>
			<line class="st0" x1="1022.4" y1="-0.6" x2="1022.4" y2="608"/>
			<line class="st0" x1="979.6" y1="-0.6" x2="979.6" y2="608"/>
			<line class="st0" x1="971" y1="-0.6" x2="971" y2="608"/>
			<line class="st0" x1="962.5" y1="-0.6" x2="962.5" y2="608"/>
			<line class="st0" x1="945.3" y1="-0.6" x2="945.3" y2="608"/>
			<line class="st0" x1="953.9" y1="-0.6" x2="953.9" y2="608"/>
			<line class="st0" x1="936.7" y1="-0.6" x2="936.7" y2="608"/>
			<line class="st0" x1="928.2" y1="-0.6" x2="928.2" y2="608"/>
			<line class="st0" x1="919.6" y1="-0.6" x2="919.6" y2="608"/>
			<line class="st0" x1="911" y1="-0.6" x2="911" y2="608"/>
			<line class="st0" x1="902.5" y1="-0.6" x2="902.5" y2="608"/>
			<line class="st0" x1="893.9" y1="-0.6" x2="893.9" y2="608"/>
			<line class="st0" x1="876.8" y1="-0.6" x2="876.8" y2="608"/>
			<line class="st0" x1="885.3" y1="-0.6" x2="885.3" y2="608"/>
		</g>
	</g>
</g>
</svg>
